<?xml version="1.0" encoding="utf-8"?>
<!-- Generator: Adobe Illustrator 16.0.0, SVG Export Plug-In . SVG Version: 6.00 Build 0)  -->
<!DOCTYPE svg PUBLIC "-//W3C//DTD SVG 1.1//EN" "http://www.w3.org/Graphics/SVG/1.1/DTD/svg11.dtd">
<svg version="1.1" id="Capa_1" xmlns="http://www.w3.org/2000/svg" xmlns:xlink="http://www.w3.org/1999/xlink" x="0px" y="0px"
	 width="600.231px" height="105.9px" viewBox="0 0 600.231 105.9" enable-background="new 0 0 600.231 105.9" xml:space="preserve">
<g>
	<defs>
		<rect id="SVGID_1_" width="600.231" height="105.9"/>
	</defs>
	<clipPath id="SVGID_2_">
		<use xlink:href="#SVGID_1_"  overflow="visible"/>
	</clipPath>
	<path clip-path="url(#SVGID_2_)" fill="#FFFFFF" d="M354.166-0.001l-46.729,103.297h16.492l13.165-30.093l5.787-13.31
		l19.387-45.717l19.82,45.717l5.642,13.31l13.165,30.093h17.506L371.672-0.001H354.166z M52.372-0.001H0V59.26h15.335V13.31h34.288
		c26.619,0,32.55,18.951,32.55,37.18c0,18.374-4.484,39.495-29.657,39.495h-2.763v13.312h3.486c31.683,0,44.27-24.306,44.27-53.095
		C97.509,20.253,83.332-0.001,52.372-0.001 M198.617,66.114c0,18.664-12.442,26.477-31.394,26.477
		c-18.952,0-31.394-7.813-31.394-26.477V-0.001h-15.335v64.235c0,27.633,15.335,41.666,46.729,41.666
		c31.394,0,46.729-14.033,46.729-41.666V46.318h-15.335V66.114z M555.095-0.001h-52.372V13.31h49.623
		c26.619,0,32.551,18.951,32.551,37.18c0,18.374-4.485,39.495-29.658,39.495h-2.762v13.312h3.486
		c31.683,0,44.269-24.306,44.269-53.095C600.231,20.253,586.054-0.001,555.095-0.001 M502.821,82.173h-0.289L436.127-0.001h-17.794
		v49.414h15.335V21.122h0.289l66.405,82.174h17.795V38.158h-15.336V82.173z M273.473,53.239v-0.29
		c11.285-3.616,17.361-12.875,17.361-25.461c0-13.166-7.523-27.489-28.211-27.489h-48.752v13.362h0.142V13.31h43.257
		c12.297,0,18.229,6.654,18.229,16.492c0,7.234-3.617,16.348-18.664,16.348h-14.605V59.46h11.857
		c12.731,0,18.952,5.642,19.965,24.159c0.723,12.442,0.723,16.782,3.183,19.677h16.202c-3.472-4.052-4.05-8.825-4.918-28.067
		C287.939,63.077,282.587,54.541,273.473,53.239"/>
</g>
</svg>
