<?xml version="1.0" encoding="utf-8"?>
<!-- Generator: Adobe Illustrator 16.0.0, SVG Export Plug-In . SVG Version: 6.00 Build 0)  -->
<!DOCTYPE svg PUBLIC "-//W3C//DTD SVG 1.1//EN" "http://www.w3.org/Graphics/SVG/1.1/DTD/svg11.dtd">
<svg version="1.1" id="Capa_1" xmlns="http://www.w3.org/2000/svg" xmlns:xlink="http://www.w3.org/1999/xlink" x="0px" y="0px"
	 width="108.981px" height="48.548px" viewBox="0 0 108.981 48.548" enable-background="new 0 0 108.981 48.548"
	 xml:space="preserve" fill="#8d97a8">
<g>
	<defs>
		<rect id="SVGID_1_" y="0" width="108.981" height="48.548"/>
	</defs>
	<clipPath id="SVGID_2_">
		<use xlink:href="#SVGID_1_"  overflow="visible"/>
	</clipPath>
	<path clip-path="url(#SVGID_2_)" d="M108.977,24.226c0.013-0.888-0.313-1.779-0.989-2.455L87.21,0.994
		c-1.324-1.325-3.48-1.325-4.807,0c-1.324,1.324-1.324,3.48,0.002,4.805l15.077,15.077H3.398C1.524,20.876,0,22.401,0,24.275
		c0,1.873,1.524,3.397,3.398,3.397h94.083L82.405,42.749c-1.326,1.325-1.326,3.481-0.001,4.807s3.48,1.324,4.806-0.001
		l20.777-20.777c0.675-0.676,1.002-1.566,0.989-2.454c0-0.016,0.005-0.032,0.005-0.048
		C108.981,24.258,108.977,24.243,108.977,24.226"/>
</g>
</svg>
