<?xml version="1.0" encoding="utf-8"?>
<!-- Generator: Adobe Illustrator 19.2.1, SVG Export Plug-In . SVG Version: 6.00 Build 0)  -->
<svg version="1.1" id="Capa_1" xmlns="http://www.w3.org/2000/svg" xmlns:xlink="http://www.w3.org/1999/xlink" x="0px" y="0px"
	 viewBox="0 0 351 400" style="enable-background:new 0 0 351 400;" xml:space="preserve" fill="#8d97a8">
<path d="M274.9,143.5l-99.3-57.3c-1.4-0.8-3-0.8-4.4,0l-99.3,57.3c-1.4,0.8-2.2,2.2-2.2,3.8l0,117c0,1.6,0.8,3,2.2,3.8l99.3,57.4
	c0.7,0.4,1.4,0.6,2.2,0.6c0.8,0,1.5-0.2,2.2-0.6l99.3-57.3c1.4-0.8,2.2-2.2,2.2-3.8v-117C277.1,145.7,276.3,144.3,274.9,143.5
	L274.9,143.5z M173.4,95l90.5,52.2l-90.5,52.2l-90.5-52.3L173.4,95z M78.5,154.9l90.5,52.3l0,106.9l-90.5-52.3L78.5,154.9z
	 M268.3,261.8L177.8,314l0-106.9l90.5-52.2V261.8z M268.3,261.8"/>
<path d="M283.7,73.3h28c17.9,0,32.4-14.5,32.4-32.4c0-17.9-14.5-32.4-32.4-32.4c-17.9,0-32.4,14.5-32.4,32.4v28
	C279.3,71.4,281.2,73.3,283.7,73.3L283.7,73.3z M288.1,40.9c0-13,10.6-23.6,23.6-23.6c13,0,23.6,10.6,23.6,23.6
	c0,13-10.6,23.6-23.6,23.6h-23.6V40.9z M288.1,40.9"/>
<path d="M329.7,40.9c0-9.9-8.1-18-18-18c-9.9,0-18,8.1-18,18c0,9.9,8.1,18,18,18C321.6,58.9,329.7,50.9,329.7,40.9L329.7,40.9z
	 M302.5,40.9c0-5.1,4.1-9.2,9.2-9.2c5.1,0,9.2,4.1,9.2,9.2c0,5.1-4.1,9.2-9.2,9.2C306.6,50.1,302.5,46,302.5,40.9L302.5,40.9z
	 M302.5,40.9"/>
<path d="M335.2,106.1l-22.9,13.2c-28.7-46.6-80.3-77.8-139-77.8c-58.7,0-110.2,31.2-138.9,77.8l-22.9-13.2c-2.1-1.2-4.8-0.5-6,1.6
	c-1.2,2.1-0.5,4.8,1.6,6L30,126.9c-12.6,23.1-19.7,49.6-19.7,77.7c0,88.5,70.8,160.7,158.7,163v21.5c0,2.4,2,4.4,4.4,4.4
	c2.4,0,4.4-2,4.4-4.4v-21.5c87.9-2.3,158.7-74.6,158.7-163c0-28.1-7.1-54.6-19.7-77.7l22.8-13.2c2.1-1.2,2.8-3.9,1.6-6
	C340,105.6,337.3,104.9,335.2,106.1L335.2,106.1z M173.4,358.9c-85.1,0-154.3-69.2-154.3-154.3S88.3,50.3,173.4,50.3
	s154.3,69.2,154.3,154.3S258.5,358.9,173.4,358.9L173.4,358.9z M173.4,358.9"/>
</svg>
