<?xml version="1.0" encoding="utf-8"?>
<!-- Generator: Adobe Illustrator 16.0.0, SVG Export Plug-In . SVG Version: 6.00 Build 0)  -->
<!DOCTYPE svg PUBLIC "-//W3C//DTD SVG 1.1//EN" "http://www.w3.org/Graphics/SVG/1.1/DTD/svg11.dtd">
<svg version="1.1" id="Capa_1" xmlns="http://www.w3.org/2000/svg" xmlns:xlink="http://www.w3.org/1999/xlink" x="0px" y="0px"
	 width="960px" height="560px" viewBox="0 0 960 560" enable-background="new 0 0 960 560" xml:space="preserve">
<path fill="#8D97A8" d="M744.672,442.277c-4.497,0-8.176-3.679-8.176-8.175V244.029H612.438c-4.497,0-8.176-3.679-8.176-8.175
	s3.679-8.175,8.176-8.175h132.028c4.497,0,8.176,3.679,8.176,8.175v198.249C752.643,438.599,749.168,442.277,744.672,442.277z"/>
<path fill="#8D97A8" d="M570.54,442.277c-4.496,0-7.971-4.088-7.971-9.083l-0.204-284.528H402.54v64.263
	c0,4.996-3.679,9.083-7.971,9.083c-4.496,0-8.175-4.087-8.175-9.083v-73.346c0-4.996,3.679-9.083,8.175-9.083H570.54
	c4.496,0,8.176,4.087,8.176,9.083v293.611C578.511,438.189,575.036,442.277,570.54,442.277z"/>
<path fill="#8D97A8" d="M394.365,442.277c-4.496,0-8.175-3.679-8.175-8.175V288.176H226.365v146.131
	c0,4.496-3.679,8.175-8.175,8.175c-4.497,0-8.175-3.679-8.175-8.175V280c0-4.496,3.679-7.971,8.175-7.971h176.175
	c4.497,0,7.971,3.679,7.971,7.971v154.307C402.54,438.599,398.861,442.277,394.365,442.277z"/>
<path fill="#8D97A8" d="M820.905,13.898H138.277c-4.497,0-8.175,3.679-8.175,8.175v478.248c0,4.496,3.679,8.175,8.175,8.175h682.628
	c4.496,0,8.175-3.679,8.175-8.175V22.073C829.08,17.577,825.401,13.898,820.905,13.898z M812.935,492.351H146.453l-0.205-462.307
	h666.481L812.935,492.351z"/>
<path fill="#8D97A8" d="M821.313,541.197H137.869c-4.292,0-7.767-3.475-7.767-7.767l0,0c0-4.292,3.475-7.767,7.767-7.767h683.445
	c4.292,0,7.767,3.475,7.767,7.767l0,0C829.08,537.723,825.401,541.197,821.313,541.197z"/>
</svg>
