<?xml version="1.0" encoding="utf-8"?>
<!-- Generator: Adobe Illustrator 19.2.1, SVG Export Plug-In . SVG Version: 6.00 Build 0)  -->
<svg version="1.1" id="Capa_1" xmlns="http://www.w3.org/2000/svg" xmlns:xlink="http://www.w3.org/1999/xlink" x="0px" y="0px"
	 viewBox="0 0 204 362" style="enable-background:new 0 0 204 362;" xml:space="preserve" >
<g>
	<path d="M113.2,353.7h-26c-5.7,0-10.3-5.1-10.9-11.8h-6.4c-6.2,0-11-5.9-11-13.4v-16h-2.4c-6.5,0-11.8-5.3-11.8-11.8v-14.6
		c0-2.9-1.5-7.7-3.3-10.2l-13.1-12.5l-0.2-0.3c-3.5-4.7-5.3-9.3-5.3-13.8v-18.5c0-6.5,5.3-11.8,11.8-11.8h12.1v-24.9l-14.8,4
		c-1.4,0.4-3,0.6-4.5,0.6c-7.9,0-14.9-5.3-16.9-13c-2.5-9.3,3.1-18.9,12.4-21.4l146-39.1c9.3-2.4,18.9,3.2,21.4,12.4
		c2.5,9.3-3.1,18.9-12.4,21.4l-23.9,6.4v53.7h12.1c6.5,0,11.8,5.3,11.8,11.8v18.5c0,4.5-1.8,9.2-5.3,13.8l-0.2,0.3L159,275.9
		c-1.7,2.5-3.3,7.2-3.3,10.2v14.6c0,6.5-5.3,11.8-11.8,11.8h-2.4v16c0,7.5-4.8,13.4-11,13.4h-6.4
		C123.5,348.7,118.9,353.7,113.2,353.7z M35,257.5L48.1,270l0.2,0.3c3,4,5.3,10.8,5.3,15.8v14.6c0,1.5,1.3,2.8,2.8,2.8h11.4v25
		c0,2.7,1.4,4.4,2,4.4h15.3v7.4c0,2.8,1.5,4.3,2,4.3h26c0.6,0,2-1.6,2-4.3v-7.4h15.3c0.5,0,2-1.5,2-4.4v-25H144
		c1.5,0,2.8-1.3,2.8-2.8v-14.6c0-5,2.3-11.8,5.3-15.9l0.2-0.3l13.1-12.5c1.5-2.1,3.3-5.1,3.3-8.1v-18.5c0-1.5-1.3-2.8-2.8-2.8h-21.7
		l0.4-4.9c0-0.5,0.1-0.9,0.2-1.2v-63.5l30.6-8.1c4.5-1.2,7.2-5.9,6-10.4c-1.2-4.5-5.9-7.2-10.5-6L25,173c-4.5,1.2-7.2,5.9-6,10.4
		c1,3.7,4.4,6.3,8.2,6.3c0.7,0,1.5-0.1,2.2-0.3l26.2-7v45.6H34.5c-1.5,0-2.8,1.3-2.8,2.8v18.5C31.7,252.3,33.4,255.4,35,257.5z
		 M133.1,228.1H68.2v-49l63.9-17.1V222c0.1,0.3,0.1,0.6,0.2,0.9L133.1,228.1z M77.2,219.1h45.9v-45.4l-45.9,12.3V219.1z"/>
</g>
<g>
	<path d="M27.2,153.6c-7.9,0-14.9-5.3-16.9-13c-2.5-9.3,3.1-18.9,12.4-21.4l146-39.1c9.3-2.4,18.9,3.2,21.4,12.4
		c1.2,4.5,0.6,9.2-1.7,13.3c-2.3,4.1-6.1,7-10.6,8.2L31.6,153.1C30,153.4,28.6,153.6,27.2,153.6z M170.9,88.8L25,127.9
		c-4.5,1.2-7.2,5.9-6,10.4c1,3.7,4.4,6.3,8.2,6.3c0.6,0,1.4-0.1,2.3-0.3l145.9-39.1c2.2-0.6,4-2,5.2-4c1.1-2,1.4-4.3,0.8-6.4
		C180.1,90.3,175.5,87.6,170.9,88.8z"/>
</g>
<g>
	<path d="M27.2,108.5c-7.9,0-14.9-5.3-16.9-13l0,0c-2.5-9.3,3.1-18.9,12.4-21.4L168.6,35c9.4-2.4,19,3.1,21.4,12.4
		c1.2,4.5,0.6,9.2-1.7,13.3c-2.3,4.1-6.1,7-10.6,8.2l-146,39.1C30.3,108.3,28.7,108.5,27.2,108.5z M19,93.2c1,3.7,4.4,6.3,8.2,6.3
		c0.7,0,1.5-0.1,2.2-0.3l146-39.1c2.2-0.6,4-2,5.2-4c1.1-2,1.4-4.3,0.8-6.4c-1.2-4.5-5.9-7.2-10.5-6L25,82.8
		C20.5,84,17.8,88.6,19,93.2L19,93.2z"/>
</g>
<g>
	<path d="M27.2,63.3c-7.9,0-14.8-5.3-16.9-13c-1.2-4.5-0.6-9.2,1.7-13.3c2.3-4.1,6.1-7,10.7-8.2L96.8,9.1
		c9.3-2.5,18.9,3.1,21.4,12.4c1.2,4.5,0.6,9.2-1.7,13.3c-2.3,4.1-6.1,7-10.6,8.2L31.6,62.8C30.1,63.2,28.6,63.3,27.2,63.3z
		 M101.3,17.5c-0.7,0-1.5,0.1-2.2,0.3L25,37.6c-2.2,0.6-4,2-5.2,4c-1.1,2-1.4,4.2-0.8,6.4c1,3.7,4.4,6.3,8.2,6.3
		c0.7,0,1.5-0.1,2.3-0.3l74.1-19.8c2.2-0.6,4-2,5.2-4c1.1-2,1.4-4.3,0.8-6.4C108.5,20,105,17.5,101.3,17.5z"/>
</g>
</svg>
