<?xml version="1.0" encoding="utf-8"?>
<!-- Generator: Adobe Illustrator 19.2.1, SVG Export Plug-In . SVG Version: 6.00 Build 0)  -->
<svg version="1.1" id="Capa_1" xmlns="http://www.w3.org/2000/svg" xmlns:xlink="http://www.w3.org/1999/xlink" x="0px" y="0px"
	 viewBox="0 0 321.2 366" style="enable-background:new 0 0 321.2 366;" xml:space="preserve" fill="#8d97a8">
<path d="M159.8,361c-1.4,0-2.8-0.3-4-1L6.5,280c-1.5-0.8-2.3-2.3-2.3-4L3.9,94.3c0-3.5,1.8-6.7,4.8-8.3L158.1,5.6
	c0.6-0.3,1.2-0.5,1.9-0.5c0.6,0,1.3,0.2,1.8,0.5l148.9,79.3c3,1.6,4.8,4.8,4.8,8.3l0.3,182.2c0,1.7-0.9,3.2-2.3,4L163.8,360
	C162.5,360.6,161.1,361,159.8,361z M164.1,267v82.7l67.6-35.8v-82.6L164.1,267z M88.3,313.9l67.6,35.8V267l-67.6-35.7V313.9z
	 M12.5,273.2L80,309v-82.7l-67.6-35.8V273.2z M240,226.8v81.6l67.6-35.8v-81.6L240,226.8z M93.4,224l66.6,35.2l66.6-35.2L160,187.9
	L93.4,224z M240,134.3V217l67.6-35.8V98.5L240,134.3z M164.1,180.2l67.6,36.7v-82.6l-67.6-35.8V180.2z M12.5,180.7L80,216.4v-82.7
	L12.5,98V180.7z M88.3,133.8v82.6l67.6-36.7V98L88.3,133.8z M169.2,91.3l66.6,35.2l66.6-35.2l-66.6-36.2L169.2,91.3z M17.6,90.8
	l66.6,35.2l66.6-35.2L84.2,54.7L17.6,90.8z M94.3,50.2L160,85.9l35-18.6l31.1-16.9L160,14.5L94.3,50.2z"/>
</svg>
