<?xml version="1.0" encoding="utf-8"?>
<!-- Generator: Adobe Illustrator 19.2.1, SVG Export Plug-In . SVG Version: 6.00 Build 0)  -->
<svg version="1.1" id="Capa_1" xmlns="http://www.w3.org/2000/svg" xmlns:xlink="http://www.w3.org/1999/xlink" x="0px" y="0px"
	 viewBox="0 0 329 326" style="enable-background:new 0 0 329 326;" xml:space="preserve" fill="#8d97a8">
<g>
	<path d="M164.5,323.6c-88.1,0-159.8-71.7-159.8-159.8c0-31,8.9-61,25.7-86.9c1.4-2.1,4.1-2.7,6.2-1.3c2.1,1.4,2.7,4.1,1.3,6.2
		c-15.8,24.4-24.2,52.8-24.2,82c0,83.2,67.7,150.8,150.8,150.8c83.2,0,150.8-67.7,150.8-150.8c0-83.2-67.7-150.8-150.8-150.8
		c-33.7,0-65.6,10.9-92.2,31.5c-2,1.5-4.8,1.2-6.3-0.8c-1.5-2-1.2-4.8,0.8-6.3c28.2-21.8,62-33.3,97.7-33.3
		c88.1,0,159.8,71.7,159.8,159.8C324.3,251.9,252.6,323.6,164.5,323.6z"/>
</g>
<g>
	<path d="M151.4,225.2c-1.3,0-2.6-0.5-3.6-1.4l-49.4-43.5c-2.3-2-2.5-5.5-0.5-7.8c2-2.3,5.5-2.5,7.8-0.5l45,39.6l87.1-109.2
		c1.9-2.4,5.4-2.8,7.7-0.9c2.4,1.9,2.8,5.4,0.9,7.7l-90.7,113.8c-0.9,1.2-2.3,1.9-3.8,2C151.7,225.2,151.6,225.2,151.4,225.2z"/>
</g>
</svg>
