<svg version="1.1" id="Capa_1" xmlns="http://www.w3.org/2000/svg" xmlns:xlink="http://www.w3.org/1999/xlink" x="0px" y="0px"
	  viewBox="0 0 258.996 385.328" enable-background="new 0 0 258.996 385.328"
	 xml:space="preserve" fill="#8d97a8">
<g>
	<defs>
		<rect id="SVGID_1_" width="258.996" height="385.328"/>
	</defs>
	<clipPath id="SVGID_2_">
		<use xlink:href="#SVGID_1_"  overflow="visible"/>
	</clipPath>
	<path clip-path="url(#SVGID_2_)" d="M129.5,385.328c-2.036,0-3.917-1.012-5.034-2.706l-18.356-27.823
		c-1.062-1.61-26.321-40.006-51.82-85.693C17.251,202.729,0,158.367,0,129.496C0,58.091,58.093,0,129.5,0
		c71.404,0,129.496,58.091,129.496,129.496c0,28.875-17.251,73.237-54.29,139.609c-25.438,45.581-50.755,84.08-51.82,85.696
		l-18.354,27.818C133.413,384.316,131.533,385.328,129.5,385.328 M129.5,12.063c-64.755,0-117.438,52.68-117.438,117.433
		c0,25.998,17.752,70.992,52.762,133.73c25.194,45.143,50.302,83.327,51.358,84.931l13.318,20.187l13.316-20.19
		c0.248-0.374,25.488-38.576,51.356-84.927c35.009-62.738,52.761-107.732,52.761-133.73C246.934,64.743,194.253,12.063,129.5,12.063
		 M129.5,198.695c-38.616,0-70.031-31.416-70.031-70.031c0-38.615,31.415-70.032,70.031-70.032
		c38.615,0,70.031,31.417,70.031,70.032C199.531,167.279,168.115,198.695,129.5,198.695 M129.5,70.695
		c-31.964,0-57.969,26.005-57.969,57.969c0,31.964,26.005,57.969,57.969,57.969s57.969-26.005,57.969-57.969
		C187.469,96.7,161.464,70.695,129.5,70.695"/>
</g>
</svg>
