<?xml version="1.0" encoding="utf-8"?>
<!-- Generator: Adobe Illustrator 16.0.0, SVG Export Plug-In . SVG Version: 6.00 Build 0)  -->
<!DOCTYPE svg PUBLIC "-//W3C//DTD SVG 1.1//EN" "http://www.w3.org/Graphics/SVG/1.1/DTD/svg11.dtd">
<svg version="1.1" id="Capa_1" xmlns="http://www.w3.org/2000/svg" xmlns:xlink="http://www.w3.org/1999/xlink" x="0px" y="0px"
	 width="489.602px" height="343.359px" viewBox="0 0 489.602 343.359" enable-background="new 0 0 489.602 343.359"
	 xml:space="preserve">
<g>
	<path d="M446.641,343.359H42.961C19.281,343.359,0,324.078,0,300.398V42.961C0,30.16,3.602,22,10.801,18.719
		c15.277-7.117,39.597,12.562,43.121,15.441l190.637,132.238L413.84,48.719c1.922-1.36,4.641-0.879,6,1.121
		c1.359,1.922,0.879,4.64-1.121,6l-171.68,119.359c-1.438,1.039-3.437,1.039-4.961,0l-193.277-134
		c-0.082-0.078-0.242-0.16-0.321-0.238c-8.878-7.602-26.082-18.082-34-14.402c-4.8,2.242-5.839,10.16-5.839,16.402V300.32
		c0,18.961,15.437,34.32,34.32,34.32h403.68c18.961,0,34.32-15.441,34.32-34.32V42.961c0-18.961-15.441-34.32-34.32-34.32H99.762
		c-2.403,0-4.321-1.922-4.321-4.321c0-2.398,1.918-4.32,4.321-4.32h346.878c23.68,0,42.961,19.281,42.961,42.961V300.32
		C489.602,324.078,470.32,343.359,446.641,343.359L446.641,343.359z M446.641,343.359"/>
</g>
</svg>
