
<svg version="1.1" id="Capa_1" xmlns="http://www.w3.org/2000/svg" xmlns:xlink="http://www.w3.org/1999/xlink" x="0px" y="0px"
	 viewBox="0 0 179.591 204.655" enable-background="new 0 0 179.591 204.655"
	 xml:space="preserve">
<g>
	<defs>
		<rect id="SVGID_1_" width="179.591" height="204.655"/>
	</defs>
	<clipPath id="SVGID_2_">
		<use xlink:href="#SVGID_1_"  overflow="visible"/>
	</clipPath>
	<path clip-path="url(#SVGID_2_)" d="M137.259,204.655c-9.972,0-20.376-3.186-30.92-9.47c-18.015-10.682-37.698-28.369-56.922-51.15
		l-0.374-0.444l-0.079,0.07l-9.103-11.35l0.161-0.112l-0.348-0.47c-17.8-24.063-30.413-47.208-36.475-66.932
		C-6.212,34.378,7.521,17.986,13.863,12.35c0.579-0.541,1.169-1.044,1.745-1.535l0.385-0.329c0.081-0.052,0.142-0.104,0.188-0.147
		c0.042-0.029,0.077-0.058,0.106-0.084l6.265-4.693c0.016-0.005,0.033-0.01,0.051-0.016h0.208l0.132-0.235
		c4.481-2.805,8.796-4.43,13.572-5.112C37.409,0.067,38.307,0,39.187,0c10.831,0,18.69,10.07,23.891,16.733l1.105,1.454
		c9.25,11.665,13.346,20.476,12.528,26.948c-0.733,5.425-5.82,9.721-10.757,13.872c-0.055,0.017-0.105,0.036-0.158,0.062
		l-0.152,0.076l-0.085,0.147c-0.055,0.096-0.071,0.123-0.093,0.146l-5.595,5.154c-0.696,0.808-1.147,1.4-1.508,1.968
		c-2.01,3.329-4.981,12.263-1.387,18.708c3.949,7.173,11.785,18.867,19.054,28.436c7.542,9.107,17.102,19.419,23.265,25.094
		c3.87,3.547,9.582,4.076,12.644,4.076c2.263,0,4.61-0.283,6.282-0.758c0.725-0.229,1.496-0.539,2.309-0.927l6.416-4.003
		l0.361-0.249c5.241-3.634,10.192-7.064,15.138-7.064c0.475,0,0.95,0.032,1.413,0.096c6.589,0.789,14.242,6.838,23.406,18.494
		l1.208,1.47c5.787,7.227,14.541,18.156,9.726,29.426c-1.82,4.315-4.482,8.019-8.367,11.639h-0.346l-0.047,0.311
		c-0.02,0.024-0.037,0.047-0.051,0.067l-5.6,4.188l-0.179,0.216c-0.156,0.194-0.292,0.362-0.48,0.502l-2.536,1.704
		C155.864,201.025,147.97,204.655,137.259,204.655 M39.165,6.098c-0.571,0-1.149,0.044-1.717,0.13
		c-3.977,0.579-7.465,1.902-11.304,4.289L20.02,15.07l-0.073,0.072l-0.289,0.249c-0.569,0.49-1.136,0.98-1.695,1.51
		c-6.775,6.01-16.965,20.012-8.945,46.113c6.211,20.016,19.201,43.444,37.568,67.753l5.269,6.685
		c19.624,23.618,39.545,41.759,57.617,52.473c9.673,5.753,19.063,8.67,27.906,8.67c9.128,0,15.812-3.109,19.812-5.718l8.383-6.302
		c3.305-3.018,5.515-6.059,6.994-9.604c3.405-7.92-3.691-16.755-8.873-23.206l-1.194-1.542
		c-10.572-13.348-16.687-15.889-19.39-16.216c-0.199-0.034-0.432-0.052-0.672-0.052c-2.996,0-7.041,2.798-10.953,5.503l-0.152,0.106
		l-0.146-0.165l-0.428,0.428l-0.181,0.189c-0.097,0.102-0.191,0.203-0.316,0.31l-6.549,4.084c-0.081,0.02-0.174,0.055-0.268,0.125
		c-0.07,0.044-0.118,0.089-0.152,0.122c-1.273,0.609-2.365,1.036-3.338,1.303c-2.236,0.645-5.054,0.998-7.941,0.998
		c-3.959,0-11.407-0.738-16.806-5.689c-6.294-5.729-16.141-16.337-23.946-25.799c-7.26-9.519-15.334-21.542-19.62-29.225
		c-4.718-8.535-1.691-19.508,1.495-24.8c0.611-1.043,1.345-2.039,2.187-2.968c0.001,0.003,0.003,0.004,0.007,0.004
		c0.022,0,0.088-0.042,0.15-0.103l0.171-0.167V60.17l5.538-5.118h0.346l0.018-0.33l0.427-0.327l0.087-0.073
		c4.024-3.414,8.185-6.944,8.561-9.974c0.358-2.619-0.62-9.021-11.207-22.386l-1.278-1.606C53.463,14.339,47.054,6.098,39.165,6.098
		"/>
</g>
</svg>
